<?xml version="1.0" encoding="UTF-8"?>
<!DOCTYPE svg PUBLIC "-//W3C//DTD SVG 1.1//EN" "http://www.w3.org/Graphics/SVG/1.1/DTD/svg11.dtd">
<svg xmlns="http://www.w3.org/2000/svg" version="1.1" width="1822px" height="2048px" style="shape-rendering:geometricPrecision; text-rendering:geometricPrecision; image-rendering:optimizeQuality; fill-rule:evenodd; clip-rule:evenodd" xmlns:xlink="http://www.w3.org/1999/xlink">
<g><path style="opacity:0.999" fill="#659ad2" d="M 891.5,-0.5 C 904.167,-0.5 916.833,-0.5 929.5,-0.5C 950.906,1.68714 971.239,7.85381 990.5,18C 1241.17,162.667 1491.83,307.333 1742.5,452C 1766.84,467.211 1785.84,487.377 1799.5,512.5C 1677.91,581.631 1556.58,651.297 1435.5,721.5C 1433.23,715.619 1430.39,709.952 1427,704.5C 1341.66,571.55 1222.82,483.05 1070.5,439C 925.614,400.73 785.281,413.064 649.5,476C 502.41,549.092 399.243,662.258 340,815.5C 297.507,935.061 291.84,1056.39 323,1179.5C 337.364,1231.78 357.864,1281.44 384.5,1328.5C 263.833,1398.17 143.167,1467.83 22.5,1537.5C 11.056,1517.83 3.38934,1496.83 -0.5,1474.5C -0.5,1174.5 -0.5,874.5 -0.5,574.5C 7.39849,529.863 28.3985,492.697 62.5,463C 66.8333,460 71.1667,457 75.5,454C 331.003,306.414 586.67,159.081 842.5,12C 858.368,5.46685 874.701,1.30018 891.5,-0.5 Z"/></g>
<g><path style="opacity:1" fill="#fefefe" d="M 1435.5,721.5 C 1348.15,771.861 1260.82,822.194 1173.5,872.5C 1118.26,782.201 1037.59,732.034 931.5,722C 823.082,717.326 735.248,757.159 668,841.5C 609.161,923.233 592.828,1012.9 619,1110.5C 626.153,1134.13 635.986,1156.46 648.5,1177.5C 690.974,1248.1 751.974,1294.94 831.5,1318C 939.866,1343.33 1035.53,1319.33 1118.5,1246C 1140.09,1225.26 1158.43,1202.09 1173.5,1176.5C 1261.34,1226.92 1349,1277.58 1436.5,1328.5C 1352.68,1468.48 1232.34,1561.98 1075.5,1609C 888.213,1657.9 715.213,1627.57 556.5,1518C 485.887,1466.57 428.553,1403.4 384.5,1328.5C 357.864,1281.44 337.364,1231.78 323,1179.5C 291.84,1056.39 297.507,935.061 340,815.5C 399.243,662.258 502.41,549.092 649.5,476C 785.281,413.064 925.614,400.73 1070.5,439C 1222.82,483.05 1341.66,571.55 1427,704.5C 1430.39,709.952 1433.23,715.619 1435.5,721.5 Z"/></g>
<g><path style="opacity:1" fill="#00599c" d="M 1799.5,512.5 C 1810.29,532.056 1817.63,552.723 1821.5,574.5C 1821.5,874.5 1821.5,1174.5 1821.5,1474.5C 1818,1496.98 1810.34,1517.98 1798.5,1537.5C 1678.17,1467.33 1557.5,1397.66 1436.5,1328.5C 1349,1277.58 1261.34,1226.92 1173.5,1176.5C 1087.41,1126.93 1001.41,1077.1 915.5,1027C 913.655,1025.87 911.655,1025.37 909.5,1025.5C 997.5,974.5 1085.5,923.5 1173.5,872.5C 1260.82,822.194 1348.15,771.861 1435.5,721.5C 1556.58,651.297 1677.91,581.631 1799.5,512.5 Z"/></g>
<g><path style="opacity:1" fill="#659ad2" d="M 1173.5,872.5 C 1085.5,923.5 997.5,974.5 909.5,1025.5C 823.646,1075.17 737.646,1124.67 651.5,1174C 649.937,1174.76 648.937,1175.93 648.5,1177.5C 635.986,1156.46 626.153,1134.13 619,1110.5C 592.828,1012.9 609.161,923.233 668,841.5C 735.248,757.159 823.082,717.326 931.5,722C 1037.59,732.034 1118.26,782.201 1173.5,872.5 Z"/></g>
<g><path style="opacity:1" fill="#fdfdfe" d="M 1382.5,923.5 C 1405.17,923.5 1427.83,923.5 1450.5,923.5C 1450.5,945.833 1450.5,968.167 1450.5,990.5C 1472.83,990.5 1495.17,990.5 1517.5,990.5C 1517.5,1013.17 1517.5,1035.83 1517.5,1058.5C 1495.17,1058.5 1472.83,1058.5 1450.5,1058.5C 1450.5,1080.83 1450.5,1103.17 1450.5,1125.5C 1427.83,1125.5 1405.17,1125.5 1382.5,1125.5C 1382.5,1103.17 1382.5,1080.83 1382.5,1058.5C 1360.17,1058.5 1337.83,1058.5 1315.5,1058.5C 1315.5,1035.83 1315.5,1013.17 1315.5,990.5C 1337.83,990.5 1360.17,990.5 1382.5,990.5C 1382.5,968.167 1382.5,945.833 1382.5,923.5 Z"/></g>
<g><path style="opacity:1" fill="#fdfefe" d="M 1770.5,990.5 C 1770.5,1012.83 1770.5,1035.17 1770.5,1057.5C 1747.99,1057.17 1725.66,1057.5 1703.5,1058.5C 1703.5,1080.83 1703.5,1103.17 1703.5,1125.5C 1681.17,1125.5 1658.83,1125.5 1636.5,1125.5C 1636.83,1102.99 1636.5,1080.66 1635.5,1058.5C 1613.17,1058.5 1590.83,1058.5 1568.5,1058.5C 1568.5,1035.83 1568.5,1013.17 1568.5,990.5C 1590.83,990.5 1613.17,990.5 1635.5,990.5C 1635.5,968.167 1635.5,945.833 1635.5,923.5C 1658.17,923.5 1680.83,923.5 1703.5,923.5C 1703.5,945.833 1703.5,968.167 1703.5,990.5C 1725.83,990.5 1748.17,990.5 1770.5,990.5 Z"/></g>
<g><path style="opacity:1" fill="#004482" d="M 909.5,1025.5 C 911.655,1025.37 913.655,1025.87 915.5,1027C 1001.41,1077.1 1087.41,1126.93 1173.5,1176.5C 1158.43,1202.09 1140.09,1225.26 1118.5,1246C 1035.53,1319.33 939.866,1343.33 831.5,1318C 751.974,1294.94 690.974,1248.1 648.5,1177.5C 648.937,1175.93 649.937,1174.76 651.5,1174C 737.646,1124.67 823.646,1075.17 909.5,1025.5 Z"/></g>
<g><path style="opacity:1" fill="#a6c3dc" d="M 1770.5,990.5 C 1771.5,1012.99 1771.83,1035.66 1771.5,1058.5C 1748.83,1058.5 1726.17,1058.5 1703.5,1058.5C 1725.66,1057.5 1747.99,1057.17 1770.5,1057.5C 1770.5,1035.17 1770.5,1012.83 1770.5,990.5 Z"/></g>
<g><path style="opacity:1" fill="#5e93bf" d="M 1635.5,1058.5 C 1636.5,1080.66 1636.83,1102.99 1636.5,1125.5C 1658.83,1125.5 1681.17,1125.5 1703.5,1125.5C 1681.01,1126.5 1658.34,1126.83 1635.5,1126.5C 1635.5,1103.83 1635.5,1081.17 1635.5,1058.5 Z"/></g>
<g><path style="opacity:0.999" fill="#004482" d="M 384.5,1328.5 C 428.553,1403.4 485.887,1466.57 556.5,1518C 715.213,1627.57 888.213,1657.9 1075.5,1609C 1232.34,1561.98 1352.68,1468.48 1436.5,1328.5C 1557.5,1397.66 1678.17,1467.33 1798.5,1537.5C 1785.2,1562.31 1766.53,1582.14 1742.5,1597C 1492.24,1740.93 1242.24,1885.27 992.5,2030C 977.319,2038.44 961.319,2044.27 944.5,2047.5C 921.833,2047.5 899.167,2047.5 876.5,2047.5C 859.681,2044.27 843.681,2038.44 828.5,2030C 578.758,1885.27 328.758,1740.93 78.5,1597C 54.4709,1582.14 35.8042,1562.31 22.5,1537.5C 143.167,1467.83 263.833,1398.17 384.5,1328.5 Z"/></g>
</svg>
