<?xml version="1.0" encoding="UTF-8"?>
<!DOCTYPE svg PUBLIC "-//W3C//DTD SVG 1.1//EN" "http://www.w3.org/Graphics/SVG/1.1/DTD/svg11.dtd">
<svg xmlns="http://www.w3.org/2000/svg" version="1.1" width="360px" height="405px" style="shape-rendering:geometricPrecision; text-rendering:geometricPrecision; image-rendering:optimizeQuality; fill-rule:evenodd; clip-rule:evenodd" xmlns:xlink="http://www.w3.org/1999/xlink">
<g><path style="opacity:0.993" fill="#6499d1" d="M 170.5,-0.5 C 176.5,-0.5 182.5,-0.5 188.5,-0.5C 240.216,28.6713 291.883,58.1713 343.5,88C 348.377,91.3761 352.377,95.5428 355.5,100.5C 331.483,114.194 307.483,127.861 283.5,141.5C 255.11,97.9752 214.777,78.4752 162.5,83C 104.33,94.8369 70.1632,130.004 60,188.5C 57.5623,214.814 62.729,239.481 75.5,262.5C 51.5,276.167 27.5,289.833 3.5,303.5C 2.134,300.768 0.800671,298.101 -0.5,295.5C -0.5,233.167 -0.5,170.833 -0.5,108.5C 2.53027,99.974 7.86361,93.1407 15.5,88C 67.1173,58.1713 118.784,28.6713 170.5,-0.5 Z"/></g>
<g><path style="opacity:1" fill="#fdfefe" d="M 283.5,141.5 C 266.7,151.737 249.7,161.737 232.5,171.5C 213.627,145.597 188.627,137.097 157.5,146C 130.127,159.24 117.627,181.073 120,211.5C 121.586,219.11 124.419,226.11 128.5,232.5C 139.753,251.53 156.586,261.197 179,261.5C 201.843,261.505 219.01,251.838 230.5,232.5C 248.618,241.725 266.285,251.725 283.5,262.5C 255.11,306.025 214.777,325.525 162.5,321C 124.655,314.427 95.6548,294.927 75.5,262.5C 62.729,239.481 57.5623,214.814 60,188.5C 70.1632,130.004 104.33,94.8369 162.5,83C 214.777,78.4752 255.11,97.9752 283.5,141.5 Z"/></g>
<g><path style="opacity:0.999" fill="#00579b" d="M 355.5,100.5 C 356.866,103.232 358.199,105.899 359.5,108.5C 359.5,170.833 359.5,233.167 359.5,295.5C 358.199,298.101 356.866,300.768 355.5,303.5C 331.798,289.315 307.798,275.649 283.5,262.5C 266.285,251.725 248.618,241.725 230.5,232.5C 230.047,231.542 229.381,230.708 228.5,230C 212.112,220.809 195.779,211.643 179.5,202.5C 197.002,191.914 214.669,181.581 232.5,171.5C 249.7,161.737 266.7,151.737 283.5,141.5C 307.483,127.861 331.483,114.194 355.5,100.5 Z"/></g>
<g><path style="opacity:1" fill="#6499d1" d="M 232.5,171.5 C 214.669,181.581 197.002,191.914 179.5,202.5C 161.998,211.747 144.998,221.747 128.5,232.5C 124.419,226.11 121.586,219.11 120,211.5C 117.627,181.073 130.127,159.24 157.5,146C 188.627,137.097 213.627,145.597 232.5,171.5 Z"/></g>
<g><path style="opacity:1" fill="#024381" d="M 179.5,202.5 C 195.779,211.643 212.112,220.809 228.5,230C 229.381,230.708 230.047,231.542 230.5,232.5C 219.01,251.838 201.843,261.505 179,261.5C 156.586,261.197 139.753,251.53 128.5,232.5C 144.998,221.747 161.998,211.747 179.5,202.5 Z"/></g>
<g><path style="opacity:0.99" fill="#004381" d="M 75.5,262.5 C 95.6548,294.927 124.655,314.427 162.5,321C 214.777,325.525 255.11,306.025 283.5,262.5C 307.798,275.649 331.798,289.315 355.5,303.5C 352.377,308.457 348.377,312.624 343.5,316C 291.883,345.829 240.216,375.329 188.5,404.5C 182.5,404.5 176.5,404.5 170.5,404.5C 118.784,375.329 67.1173,345.829 15.5,316C 10.6228,312.624 6.62283,308.457 3.5,303.5C 27.5,289.833 51.5,276.167 75.5,262.5 Z"/></g>
</svg>
