<?xml version="1.0" standalone="no"?>
<!DOCTYPE svg PUBLIC "-//W3C//DTD SVG 20010904//EN"
 "http://www.w3.org/TR/2001/REC-SVG-20010904/DTD/svg10.dtd">
<svg version="1.0" xmlns="http://www.w3.org/2000/svg"
 width="920.000000pt" height="512.000000pt" viewBox="0 0 920.000000 512.000000"
 preserveAspectRatio="xMidYMid meet">

<g transform="translate(0.000000,512.000000) scale(0.100000,-0.100000)"
fill="#000000" stroke="none">
<path d="M3780 4609 c-383 -6 -434 -8 -520 -28 -52 -11 -96 -21 -98 -21 -2 0
-1 -4 2 -9 4 -5 -2 -7 -11 -5 -10 3 -58 -15 -108 -39 -222 -108 -379 -297
-449 -540 -51 -175 -51 -189 -50 -1412 1 -1024 2 -1152 18 -1255 34 -228 107
-380 251 -525 165 -165 338 -240 615 -264 130 -12 2219 -11 2350 0 264 24 455
106 607 261 74 76 91 97 133 168 47 80 86 183 104 275 8 44 19 96 22 115 10
51 14 2233 4 2372 -9 132 -22 204 -52 298 -78 245 -257 438 -498 536 -88 36
-223 63 -350 69 -152 9 -1473 11 -1970 4z m927 -625 c95 -40 158 -143 151
-249 l-4 -60 290 -167 289 -167 33 25 c36 28 111 54 154 54 106 0 216 -83 246
-185 37 -129 -21 -252 -143 -307 l-43 -19 0 -334 0 -335 37 -15 c58 -25 96
-59 126 -113 70 -128 28 -274 -101 -350 -40 -23 -58 -27 -122 -27 -75 0 -100
9 -181 66 -12 9 -71 -21 -300 -153 l-284 -165 3 -65 c5 -82 -23 -152 -80 -204
-55 -49 -102 -67 -175 -67 -77 1 -139 29 -191 88 -46 53 -64 107 -61 183 l3
57 -70 39 c-38 22 -167 97 -288 166 l-218 127 -49 -33 c-108 -72 -248 -52
-333 48 -114 133 -65 335 97 403 l37 15 -2 337 -3 337 -34 10 c-54 15 -127 94
-145 156 -20 67 -20 93 0 161 29 97 140 179 244 179 43 0 118 -26 154 -53 l32
-25 289 166 289 167 -3 62 c-8 190 180 320 356 247z"/>
<path d="M4404 3561 c-10 -10 -508 -299 -541 -314 -18 -8 -21 -17 -21 -76 1
-110 -47 -192 -138 -237 l-54 -26 0 -334 c0 -184 4 -334 8 -334 5 0 13 10 19
23 6 12 170 299 365 637 195 338 361 626 367 638 13 25 11 37 -5 23z"/>
<path d="M4790 3556 c0 -2 165 -288 366 -637 202 -349 371 -644 377 -656 6
-13 14 -23 19 -23 4 0 8 151 8 335 l0 335 -37 15 c-101 42 -158 131 -157 246
1 52 -2 69 -14 74 -8 3 -136 75 -283 160 -251 145 -279 161 -279 151z"/>
<path d="M4151 2836 c-359 -623 -380 -661 -366 -680 9 -12 25 -40 36 -63 l20
-43 762 0 763 0 22 43 c12 23 28 51 37 62 14 20 -2 49 -251 480 -146 253 -317
550 -381 660 l-114 200 -74 0 -73 0 -381 -659z"/>
<path d="M3840 1920 c0 -3 24 -18 53 -34 28 -16 160 -92 291 -168 238 -138
239 -138 260 -119 33 30 83 52 134 58 70 8 122 -10 203 -68 13 -10 66 17 290
146 151 86 281 164 289 171 12 12 -103 14 -753 16 -422 2 -767 1 -767 -2z"/>
</g>
</svg>
