<?xml version="1.0" encoding="UTF-8"?>
<!DOCTYPE svg PUBLIC "-//W3C//DTD SVG 1.1//EN" "http://www.w3.org/Graphics/SVG/1.1/DTD/svg11.dtd">
<svg xmlns="http://www.w3.org/2000/svg" version="1.1" width="1200px" height="1693px" style="shape-rendering:geometricPrecision; text-rendering:geometricPrecision; image-rendering:optimizeQuality; fill-rule:evenodd; clip-rule:evenodd" xmlns:xlink="http://www.w3.org/1999/xlink">
<g><path style="opacity:0.985" fill="#000000" d="M 281.5,-0.5 C 342.5,-0.5 403.5,-0.5 464.5,-0.5C 464.828,25.0745 464.495,50.5745 463.5,76C 428.502,76.5 393.502,76.6667 358.5,76.5C 358.5,101.5 358.5,126.5 358.5,151.5C 393.833,151.5 429.167,151.5 464.5,151.5C 464.828,177.074 464.495,202.574 463.5,228C 402.834,228.5 342.168,228.667 281.5,228.5C 281.5,152.167 281.5,75.8333 281.5,-0.5 Z"/></g>
<g><path style="opacity:0.987" fill="#000000" d="M 499.5,-0.5 C 560.5,-0.5 621.5,-0.5 682.5,-0.5C 682.5,21.8333 682.5,44.1667 682.5,66.5C 647.167,66.5 611.833,66.5 576.5,66.5C 576.5,70.5 576.5,74.5 576.5,78.5C 611.833,78.5 647.167,78.5 682.5,78.5C 682.5,129.5 682.5,180.5 682.5,231.5C 621.5,231.5 560.5,231.5 499.5,231.5C 499.5,208.167 499.5,184.833 499.5,161.5C 534.833,161.5 570.167,161.5 605.5,161.5C 605.5,157.167 605.5,152.833 605.5,148.5C 570.167,148.5 534.833,148.5 499.5,148.5C 499.5,98.8333 499.5,49.1667 499.5,-0.5 Z"/></g>
<g><path style="opacity:0.987" fill="#000000" d="M 717.5,-0.5 C 778.5,-0.5 839.5,-0.5 900.5,-0.5C 900.5,21.8333 900.5,44.1667 900.5,66.5C 865.167,66.5 829.833,66.5 794.5,66.5C 794.5,70.5 794.5,74.5 794.5,78.5C 829.833,78.5 865.167,78.5 900.5,78.5C 900.5,129.5 900.5,180.5 900.5,231.5C 839.5,231.5 778.5,231.5 717.5,231.5C 717.5,208.167 717.5,184.833 717.5,161.5C 752.833,161.5 788.167,161.5 823.5,161.5C 823.5,157.167 823.5,152.833 823.5,148.5C 788.167,148.5 752.833,148.5 717.5,148.5C 717.5,98.8333 717.5,49.1667 717.5,-0.5 Z"/></g>
<g><path style="opacity:0.997" fill="#264de4" d="M -0.5,331.5 C 399.5,331.5 799.5,331.5 1199.5,331.5C 1199.5,332.167 1199.5,332.833 1199.5,333.5C 1162.68,740.652 1126.18,1147.99 1090,1555.5C 1084.15,1558.23 1077.98,1560.4 1071.5,1562C 914.916,1605.06 758.583,1648.56 602.5,1692.5C 599.833,1692.5 597.167,1692.5 594.5,1692.5C 433.75,1647.23 272.75,1602.39 111.5,1558C 109.939,1557.68 108.772,1556.85 108,1555.5C 72.15,1151.32 35.9834,747.319 -0.5,343.5C -0.5,339.5 -0.5,335.5 -0.5,331.5 Z"/></g>
<g><path style="opacity:1" fill="#2965f1" d="M 597.5,1432.5 C 597.833,1432.5 598.167,1432.5 598.5,1432.5C 701.214,1404.15 803.881,1375.81 906.5,1347.5C 928.686,1092.46 951.352,837.458 974.5,582.5C 849.5,582.5 724.5,582.5 599.5,582.5C 599.5,532.5 599.5,482.5 599.5,432.5C 762.5,432.5 925.5,432.5 1088.5,432.5C 1057.61,781.157 1026.95,1129.82 996.5,1478.5C 864.248,1514.98 731.915,1551.31 599.5,1587.5C 600.155,1535.62 599.489,1483.95 597.5,1432.5 Z"/></g>
<g><path style="opacity:1" fill="#eaeaea" d="M 598.5,582.5 C 598.5,632.5 598.5,682.5 598.5,732.5C 477.833,732.5 357.167,732.5 236.5,732.5C 232.02,682.626 227.354,632.626 222.5,582.5C 347.833,582.5 473.167,582.5 598.5,582.5 Z"/></g>
<g><path style="opacity:1" fill="#fefefe" d="M 598.5,582.5 C 598.833,582.5 599.167,582.5 599.5,582.5C 724.5,582.5 849.5,582.5 974.5,582.5C 951.352,837.458 928.686,1092.46 906.5,1347.5C 803.881,1375.81 701.214,1404.15 598.5,1432.5C 598.5,1380.5 598.5,1328.5 598.5,1276.5C 599.167,1276.5 599.5,1276.17 599.5,1275.5C 655.167,1260.83 710.833,1246.17 766.5,1231.5C 771.385,1166.43 777.052,1101.43 783.5,1036.5C 721.833,1036.5 660.167,1036.5 598.5,1036.5C 598.5,986.5 598.5,936.5 598.5,886.5C 664.669,886.832 730.669,886.499 796.5,885.5C 801.134,834.526 805.467,783.526 809.5,732.5C 739.167,732.5 668.833,732.5 598.5,732.5C 598.5,682.5 598.5,632.5 598.5,582.5 Z"/></g>
<g><path style="opacity:1" fill="#2965f0" d="M 236.5,732.5 C 357.167,732.5 477.833,732.5 598.5,732.5C 668.833,732.5 739.167,732.5 809.5,732.5C 805.467,783.526 801.134,834.526 796.5,885.5C 730.833,885.5 665.167,885.5 599.5,885.5C 599.5,834.833 599.5,784.167 599.5,733.5C 478.332,733.833 357.332,733.5 236.5,732.5 Z"/></g>
<g><path style="opacity:1" fill="#4268e8" d="M 599.5,885.5 C 665.167,885.5 730.833,885.5 796.5,885.5C 730.669,886.499 664.669,886.832 598.5,886.5C 482.5,886.5 366.5,886.5 250.5,886.5C 250.5,889.167 250.5,891.833 250.5,894.5C 249.523,891.713 249.19,888.713 249.5,885.5C 366.167,885.5 482.833,885.5 599.5,885.5 Z"/></g>
<g><path style="opacity:1" fill="#eaeaea" d="M 598.5,886.5 C 598.5,936.5 598.5,986.5 598.5,1036.5C 486.833,1036.5 375.167,1036.5 263.5,1036.5C 259.179,989.307 254.846,941.973 250.5,894.5C 250.5,891.833 250.5,889.167 250.5,886.5C 366.5,886.5 482.5,886.5 598.5,886.5 Z"/></g>
<g><path style="opacity:1" fill="#2965f0" d="M 263.5,1036.5 C 375.167,1036.5 486.833,1036.5 598.5,1036.5C 660.167,1036.5 721.833,1036.5 783.5,1036.5C 777.052,1101.43 771.385,1166.43 766.5,1231.5C 710.833,1246.17 655.167,1260.83 599.5,1275.5C 599.5,1196.17 599.5,1116.83 599.5,1037.5C 487.332,1037.83 375.332,1037.5 263.5,1036.5 Z"/></g>
<g><path style="opacity:1" fill="#eaeaea" d="M 598.5,1276.5 C 598.5,1328.5 598.5,1380.5 598.5,1432.5C 598.167,1432.5 597.833,1432.5 597.5,1432.5C 495.474,1404.49 393.474,1376.16 291.5,1347.5C 283.838,1268.89 276.838,1190.23 270.5,1111.5C 320.501,1111.33 370.501,1111.5 420.5,1112C 424.428,1151.74 427.761,1191.57 430.5,1231.5C 486.45,1246.49 542.45,1261.49 598.5,1276.5 Z"/></g>
</svg>
