<?xml version="1.0" standalone="no"?>
<!DOCTYPE svg PUBLIC "-//W3C//DTD SVG 20010904//EN"
 "http://www.w3.org/TR/2001/REC-SVG-20010904/DTD/svg10.dtd">
<svg version="1.0" xmlns="http://www.w3.org/2000/svg"
 width="900.000000pt" height="326.000000pt" viewBox="0 0 900.000000 326.000000"
 preserveAspectRatio="xMidYMid meet">

<g transform="translate(0.000000,326.000000) scale(0.100000,-0.100000)"
fill="#000000" stroke="none">
<path d="M849 2673 c-147 -49 -249 -206 -236 -362 3 -37 8 -73 12 -82 4 -11
65 -30 213 -64 114 -27 216 -49 226 -49 18 -1 24 24 68 249 l48 250 -26 21
c-63 51 -210 69 -305 37z"/>
<path d="M4659 2313 c0 -5 -1 -339 -1 -743 l-1 -735 77 -3 76 -3 0 746 0 745
-75 0 c-41 0 -75 -3 -76 -7z"/>
<path d="M7760 2190 l0 -90 80 0 80 0 0 90 0 90 -80 0 -80 0 0 -90z"/>
<path d="M7060 2025 l0 -155 -70 0 -70 0 0 -70 0 -70 70 0 70 0 0 -282 c0
-156 5 -325 10 -377 23 -213 96 -270 330 -258 156 8 160 10 160 61 0 85 5 82
-140 82 -125 -1 -130 0 -154 24 -39 39 -46 104 -46 441 l0 309 165 0 165 0 0
70 0 70 -165 0 -165 0 0 155 0 155 -80 0 -80 0 0 -155z"/>
<path d="M2415 1703 c-159 -140 -305 -268 -323 -284 l-33 -29 62 -121 c38 -76
69 -124 83 -130 30 -13 454 -109 481 -109 12 0 45 12 73 28 166 89 262 249
262 437 0 188 -94 346 -258 433 l-57 30 -290 -255z"/>
<path d="M3945 1883 c-247 -33 -367 -235 -352 -593 13 -302 94 -431 296 -471
87 -17 437 0 506 25 6 2 9 29 7 63 l-4 59 -91 -9 c-51 -4 -159 -7 -242 -5
-172 4 -215 18 -260 86 -29 44 -55 139 -55 199 l0 43 339 0 338 0 7 38 c16 99
1 251 -35 347 -26 71 -96 148 -162 178 -80 38 -193 53 -292 40z m212 -159 c32
-15 60 -38 72 -58 27 -43 51 -138 51 -203 l0 -53 -268 0 -268 0 8 76 c10 93
40 165 85 205 81 71 211 84 320 33z"/>
<path d="M5060 1888 c-1 -1 -2 -33 -3 -71 l-2 -67 225 0 c201 0 230 -2 268
-20 60 -27 81 -77 82 -187 0 -80 -1 -83 -23 -83 -62 0 -347 -32 -393 -44 -120
-31 -183 -90 -210 -196 -45 -177 30 -354 167 -394 100 -30 295 -13 427 36 53
20 56 20 91 3 23 -11 70 -19 127 -23 l91 -5 6 39 c4 22 7 53 7 71 0 29 -4 33
-34 38 -18 4 -47 15 -64 25 l-31 19 -3 323 c-3 315 -4 324 -27 375 -13 29 -41
68 -62 87 -66 60 -112 69 -391 74 -137 2 -248 2 -248 0z m570 -718 l0 -169
-52 -15 c-117 -33 -136 -36 -218 -42 -70 -4 -91 -2 -120 13 -125 65 -114 300
16 343 38 13 237 37 322 39 l52 1 0 -170z"/>
<path d="M6274 1875 c-122 -26 -221 -100 -243 -182 -18 -62 -13 -192 8 -238
32 -72 108 -117 241 -144 30 -6 104 -20 163 -32 155 -31 197 -65 197 -159 0
-105 -65 -159 -204 -167 -74 -5 -308 9 -377 23 -26 5 -26 4 -32 -63 -3 -37 -4
-69 -3 -70 1 -1 71 -10 156 -19 323 -34 484 -1 570 118 71 98 62 297 -17 380
-40 42 -127 74 -293 108 -192 39 -236 57 -255 104 -20 46 -19 72 4 122 14 31
30 47 64 63 54 26 127 30 360 18 l158 -8 -3 68 -3 68 -165 12 c-212 14 -252
14 -326 -2z"/>
<path d="M8488 1880 c-103 -18 -151 -41 -208 -99 -45 -45 -60 -69 -78 -123
-34 -106 -45 -200 -39 -353 12 -347 108 -475 370 -492 82 -6 315 13 334 26 4
3 7 34 5 69 l-4 62 -66 -7 c-37 -4 -119 -8 -182 -8 -103 0 -120 3 -165 25
-101 51 -130 134 -129 375 1 182 11 235 56 300 50 74 160 101 348 85 58 -5
113 -9 123 -10 14 0 17 10 17 64 l0 63 -92 12 c-132 17 -236 21 -290 11z"/>
<path d="M7760 1350 l0 -520 80 0 80 0 0 520 0 520 -80 0 -80 0 0 -520z"/>
</g>
</svg>
