<?xml version="1.0" standalone="no"?>
<!DOCTYPE svg PUBLIC "-//W3C//DTD SVG 20010904//EN"
 "http://www.w3.org/TR/2001/REC-SVG-20010904/DTD/svg10.dtd">
<svg version="1.0" xmlns="http://www.w3.org/2000/svg"
 width="185.000000pt" height="185.000000pt" viewBox="0 0 185.000000 185.000000"
 preserveAspectRatio="xMidYMid meet">

<g transform="translate(0.000000,185.000000) scale(0.100000,-0.100000)"
fill="#000000" stroke="none">
<path d="M833 1770 c-273 -37 -501 -184 -638 -410 -87 -143 -135 -356 -115
-510 20 -157 58 -263 132 -378 138 -212 365 -350 625 -382 298 -36 621 114
792 369 302 447 113 1053 -391 1254 -122 49 -289 73 -405 57z m567 -378 c0 -4
-116 -88 -257 -187 l-258 -180 173 -3 c94 -1 172 -6 171 -10 0 -9 -763 -542
-776 -542 -6 0 84 209 200 465 l210 465 268 0 c148 0 269 -3 269 -8z"/>
</g>
</svg>
