<?xml version="1.0" encoding="UTF-8"?>
<!DOCTYPE svg PUBLIC "-//W3C//DTD SVG 1.1//EN" "http://www.w3.org/Graphics/SVG/1.1/DTD/svg11.dtd">
<svg xmlns="http://www.w3.org/2000/svg" version="1.1" width="640px" height="640px" style="shape-rendering:geometricPrecision; text-rendering:geometricPrecision; image-rendering:optimizeQuality; fill-rule:evenodd; clip-rule:evenodd" xmlns:xlink="http://www.w3.org/1999/xlink">
<g><path style="opacity:0.961" fill="#000000" d="M 134.5,-0.5 C 144.5,-0.5 154.5,-0.5 164.5,-0.5C 164.5,8.83333 164.5,18.1667 164.5,27.5C 172.833,27.5 181.167,27.5 189.5,27.5C 189.5,18.1667 189.5,8.83333 189.5,-0.5C 199.5,-0.5 209.5,-0.5 219.5,-0.5C 219.5,28.5 219.5,57.5 219.5,86.5C 209.5,86.5 199.5,86.5 189.5,86.5C 189.5,76.8333 189.5,67.1667 189.5,57.5C 181.167,57.5 172.833,57.5 164.5,57.5C 164.5,67.1667 164.5,76.8333 164.5,86.5C 154.5,86.5 144.5,86.5 134.5,86.5C 134.5,57.5 134.5,28.5 134.5,-0.5 Z"/></g>
<g><path style="opacity:0.971" fill="#000000" d="M 231.5,-0.5 C 258.167,-0.5 284.833,-0.5 311.5,-0.5C 311.5,9.16667 311.5,18.8333 311.5,28.5C 303.167,28.5 294.833,28.5 286.5,28.5C 286.5,47.8333 286.5,67.1667 286.5,86.5C 276.5,86.5 266.5,86.5 256.5,86.5C 256.5,67.1667 256.5,47.8333 256.5,28.5C 248.167,28.5 239.833,28.5 231.5,28.5C 231.5,18.8333 231.5,9.16667 231.5,-0.5 Z"/></g>
<g><path style="opacity:0.964" fill="#000000" d="M 323.5,-0.5 C 334.167,-0.5 344.833,-0.5 355.5,-0.5C 360.353,9.34734 366.02,18.6807 372.5,27.5C 378.98,18.6807 384.647,9.34734 389.5,-0.5C 400.167,-0.5 410.833,-0.5 421.5,-0.5C 421.5,28.5 421.5,57.5 421.5,86.5C 411.5,86.5 401.5,86.5 391.5,86.5C 391.667,73.1625 391.5,59.8292 391,46.5C 385.03,55.9689 378.863,65.3022 372.5,74.5C 365.837,64.9927 359.337,55.326 353,45.5C 352.5,59.1626 352.333,72.8293 352.5,86.5C 342.833,86.5 333.167,86.5 323.5,86.5C 323.5,57.5 323.5,28.5 323.5,-0.5 Z"/></g>
<g><path style="opacity:0.949" fill="#000000" d="M 434.5,-0.5 C 444.5,-0.5 454.5,-0.5 464.5,-0.5C 464.5,18.5 464.5,37.5 464.5,56.5C 478.167,56.5 491.833,56.5 505.5,56.5C 505.5,66.5 505.5,76.5 505.5,86.5C 481.833,86.5 458.167,86.5 434.5,86.5C 434.5,57.5 434.5,28.5 434.5,-0.5 Z"/></g>
<g><path style="opacity:0.993" fill="#e44d26" d="M 323.5,639.5 C 320.833,639.5 318.167,639.5 315.5,639.5C 255.067,622.597 194.567,605.597 134,588.5C 119.596,433.884 105.762,279.217 92.5,124.5C 243.833,124.5 395.167,124.5 546.5,124.5C 533.399,279.273 519.399,433.939 504.5,588.5C 444.01,605.369 383.677,622.369 323.5,639.5 Z"/></g>
<g><path style="opacity:1" fill="#f16529" d="M 319.5,541.5 C 319.5,541.167 319.5,540.833 319.5,540.5C 358.2,530.162 396.866,519.829 435.5,509.5C 440.5,451.5 445.5,393.5 450.5,335.5C 407.003,334.501 363.337,334.168 319.5,334.5C 319.5,315.5 319.5,296.5 319.5,277.5C 292.833,277.5 266.167,277.5 239.5,277.5C 265.995,276.502 292.661,276.169 319.5,276.5C 365.167,276.5 410.833,276.5 456.5,276.5C 457.928,257.791 459.595,239.124 461.5,220.5C 414.336,219.501 367.003,219.168 319.5,219.5C 319.5,200.833 319.5,182.167 319.5,163.5C 381.167,163.5 442.833,163.5 504.5,163.5C 492.778,295.163 481.111,426.829 469.5,558.5C 419.5,572.167 369.5,585.833 319.5,599.5C 319.5,580.167 319.5,560.833 319.5,541.5 Z"/></g>
<g><path style="opacity:1" fill="#ebe9e9" d="M 319.5,219.5 C 367.003,219.168 414.336,219.501 461.5,220.5C 414.167,220.5 366.833,220.5 319.5,220.5C 319.5,239.167 319.5,257.833 319.5,276.5C 292.661,276.169 265.995,276.502 239.5,277.5C 241.107,296.506 242.773,315.506 244.5,334.5C 269.5,334.5 294.5,334.5 319.5,334.5C 363.337,334.168 407.003,334.501 450.5,335.5C 406.833,335.5 363.167,335.5 319.5,335.5C 319.5,354.167 319.5,372.833 319.5,391.5C 277.167,391.5 234.833,391.5 192.5,391.5C 187.5,334.169 182.5,276.835 177.5,219.5C 224.833,219.5 272.167,219.5 319.5,219.5 Z"/></g>
<g><path style="opacity:1" fill="#fffefe" d="M 461.5,220.5 C 459.595,239.124 457.928,257.791 456.5,276.5C 410.833,276.5 365.167,276.5 319.5,276.5C 319.5,257.833 319.5,239.167 319.5,220.5C 366.833,220.5 414.167,220.5 461.5,220.5 Z"/></g>
<g><path style="opacity:1" fill="#e44d26" d="M 239.5,277.5 C 266.167,277.5 292.833,277.5 319.5,277.5C 319.5,296.5 319.5,315.5 319.5,334.5C 294.5,334.5 269.5,334.5 244.5,334.5C 242.773,315.506 241.107,296.506 239.5,277.5 Z"/></g>
<g><path style="opacity:1" fill="#fffefe" d="M 450.5,335.5 C 445.5,393.5 440.5,451.5 435.5,509.5C 396.866,519.829 358.2,530.162 319.5,540.5C 319.5,521.167 319.5,501.833 319.5,482.5C 320.791,482.737 321.791,482.404 322.5,481.5C 342.137,476.171 361.804,470.837 381.5,465.5C 382.298,463.922 382.798,462.256 383,460.5C 384.864,437.496 386.697,414.496 388.5,391.5C 365.5,391.5 342.5,391.5 319.5,391.5C 319.5,372.833 319.5,354.167 319.5,335.5C 363.167,335.5 406.833,335.5 450.5,335.5 Z"/></g>
<g><path style="opacity:1" fill="#f16529" d="M 319.5,391.5 C 342.5,391.5 365.5,391.5 388.5,391.5C 386.697,414.496 384.864,437.496 383,460.5C 382.798,462.256 382.298,463.922 381.5,465.5C 361.804,470.837 342.137,476.171 322.5,481.5C 321.5,481.5 320.5,481.5 319.5,481.5C 319.5,451.5 319.5,421.5 319.5,391.5 Z"/></g>
<g><path style="opacity:1" fill="#e8ac9c" d="M 195.5,420.5 C 214.326,419.503 233.326,419.17 252.5,419.5C 252.5,420.833 252.5,422.167 252.5,423.5C 251.596,422.791 251.263,421.791 251.5,420.5C 232.833,420.5 214.167,420.5 195.5,420.5 Z"/></g>
<g><path style="opacity:1" fill="#ebeae9" d="M 195.5,420.5 C 214.167,420.5 232.833,420.5 251.5,420.5C 251.263,421.791 251.596,422.791 252.5,423.5C 254.162,437.451 255.162,451.451 255.5,465.5C 276.748,471.145 298.081,476.479 319.5,481.5C 320.5,481.5 321.5,481.5 322.5,481.5C 321.791,482.404 320.791,482.737 319.5,482.5C 319.5,501.833 319.5,521.167 319.5,540.5C 319.5,540.833 319.5,541.167 319.5,541.5C 280.736,530.976 242.069,520.143 203.5,509C 200.481,479.581 197.814,450.081 195.5,420.5 Z"/></g>
</svg>
