<?xml version="1.0" standalone="no"?>
<!DOCTYPE svg PUBLIC "-//W3C//DTD SVG 20010904//EN"
 "http://www.w3.org/TR/2001/REC-SVG-20010904/DTD/svg10.dtd">
<svg version="1.0" xmlns="http://www.w3.org/2000/svg"
 width="920.000000pt" height="578.000000pt" viewBox="0 0 920.000000 578.000000"
 preserveAspectRatio="xMidYMid meet">

<g transform="translate(0.000000,578.000000) scale(0.100000,-0.100000)"
fill="#000000" stroke="none">
<path d="M5740 5150 c-72 -38 -94 -130 -53 -220 11 -25 59 -96 106 -159 81
-109 88 -121 132 -255 53 -161 120 -302 172 -359 22 -24 33 -45 29 -56 -3 -9
-20 -65 -37 -126 -30 -101 -32 -122 -33 -260 0 -166 12 -233 65 -336 65 -130
146 -183 223 -148 35 16 52 58 71 174 9 55 18 101 20 103 2 2 27 -42 55 -97
55 -108 117 -178 285 -327 106 -93 123 -102 49 -23 -113 120 -275 386 -355
588 l-34 83 -32 -37 c-60 -69 -89 -156 -108 -317 -4 -36 -11 -58 -19 -58 -20
0 -64 52 -87 105 -72 164 -76 381 -9 573 42 120 40 146 -14 205 -55 61 -104
163 -146 297 -44 144 -78 213 -165 329 -90 121 -107 153 -103 194 2 23 10 35
30 45 23 11 36 10 90 -8 78 -26 201 -91 244 -130 27 -23 45 -29 101 -35 162
-15 197 -24 313 -81 274 -133 526 -373 677 -643 20 -34 64 -127 98 -205 175
-395 236 -513 277 -534 13 -6 81 -32 152 -57 112 -39 148 -57 265 -136 129
-87 191 -135 191 -149 0 -3 -41 -7 -92 -9 -144 -3 -330 -50 -336 -85 -5 -24
34 -95 76 -139 62 -64 161 -132 282 -192 105 -52 230 -133 260 -170 7 -8 17
-15 21 -15 22 0 -27 64 -133 171 -85 88 -134 129 -201 169 -92 55 -165 117
-150 130 9 7 166 42 278 60 39 6 83 17 99 23 l29 13 -50 60 c-98 117 -313 273
-485 351 -68 31 -133 65 -145 77 -23 22 -208 406 -263 543 -112 284 -375 574
-709 784 -125 78 -283 128 -408 129 -43 0 -58 5 -85 29 -87 76 -264 151 -355
151 -27 -1 -63 -9 -83 -20z"/>
<path d="M6227 4703 c-15 -4 -12 -10 17 -46 19 -23 41 -59 50 -80 18 -43 34
-44 54 -3 34 70 -41 150 -121 129z"/>
<path d="M1225 2830 c-71 -15 -125 -42 -148 -74 l-22 -31 -3 -517 -3 -518 121
0 120 0 2 478 c2 365 6 471 14 452 213 -468 275 -606 322 -710 67 -151 92
-186 146 -211 57 -26 185 -26 242 0 63 29 61 25 257 461 36 80 97 216 136 302
39 87 71 162 71 168 0 5 3 10 8 10 4 0 7 -213 7 -473 l0 -472 123 -3 122 -3 0
493 c0 300 -4 507 -10 529 -14 51 -54 87 -119 106 -67 20 -172 22 -222 5 -52
-18 -108 -76 -136 -141 -13 -31 -42 -94 -63 -141 -68 -151 -262 -584 -282
-630 l-19 -45 -35 80 c-20 44 -69 159 -111 255 -241 561 -254 584 -331 617
-42 17 -136 24 -187 13z"/>
<path d="M3860 2159 l0 -320 -297 3 c-274 3 -301 5 -330 22 -18 11 -36 31 -41
46 -5 14 -8 145 -7 293 l3 267 -124 0 -124 0 0 -282 c0 -317 5 -341 71 -391
115 -86 178 -97 547 -97 l302 0 0 -59 c0 -49 -4 -62 -25 -84 -44 -43 -87 -47
-499 -47 l-386 0 0 -81 0 -80 443 4 c373 3 449 6 488 19 106 37 170 82 198
142 20 41 21 59 21 504 l0 462 -120 0 -120 0 0 -321z"/>
</g>
</svg>
