<?xml version="1.0" standalone="no"?>
<!DOCTYPE svg PUBLIC "-//W3C//DTD SVG 20010904//EN"
 "http://www.w3.org/TR/2001/REC-SVG-20010904/DTD/svg10.dtd">
<svg version="1.0" xmlns="http://www.w3.org/2000/svg"
 width="920.000000pt" height="307.000000pt" viewBox="0 0 920.000000 307.000000"
 preserveAspectRatio="xMidYMid meet">

<g transform="translate(0.000000,307.000000) scale(0.100000,-0.100000)"
fill="#000000" stroke="none">
<path d="M4677 2703 c-4 -3 -7 -214 -7 -468 0 -392 -2 -464 -15 -475 -11 -9
-27 -4 -82 26 -139 77 -127 76 -227 14 -34 -20 -83 -49 -111 -64 -50 -28 -111
-63 -285 -164 -52 -30 -110 -66 -127 -79 l-33 -24 0 -368 0 -368 23 -20 c20
-19 202 -133 212 -133 2 0 55 -30 117 -66 62 -37 150 -89 196 -115 46 -27 94
-49 107 -49 24 0 63 20 225 115 156 91 288 168 353 204 33 19 64 45 72 61 13
25 15 147 15 877 0 973 9 887 -97 942 -32 17 -89 49 -128 71 -151 87 -189 102
-208 83z m-112 -1416 l100 -62 3 -126 3 -126 -68 -41 c-160 -94 -154 -92 -210
-61 -82 45 -158 93 -166 103 -4 6 -6 65 -5 131 l3 120 100 62 c55 34 109 62
120 62 11 0 65 -28 120 -62z"/>
<path d="M835 1832 c-38 -21 -131 -73 -205 -117 -74 -43 -166 -97 -205 -118
-38 -22 -87 -49 -107 -61 -70 -40 -68 -23 -68 -531 0 -451 3 -495 33 -495 12
0 102 49 290 157 123 71 117 56 117 329 0 207 2 236 17 254 10 11 23 20 30 20
7 0 13 5 13 10 0 6 4 10 10 10 5 0 32 13 60 30 87 51 89 51 215 -18 104 -57
105 -59 105 -333 0 -261 -8 -238 114 -304 38 -21 97 -54 130 -74 34 -20 82
-47 108 -61 82 -43 78 -65 78 464 0 253 -3 471 -6 483 -6 23 -71 68 -210 146
-44 24 -140 79 -214 122 -128 75 -219 124 -230 124 -3 0 -36 -16 -75 -37z"/>
<path d="M6168 1841 c-75 -39 -177 -97 -234 -133 -34 -21 -64 -38 -67 -38 -4
0 -46 -24 -94 -53 -48 -29 -105 -61 -127 -72 -21 -11 -51 -32 -67 -47 l-29
-26 0 -360 0 -360 26 -31 c14 -17 30 -31 35 -31 4 0 41 -19 81 -43 72 -43 200
-116 288 -165 25 -14 73 -42 107 -63 64 -39 106 -55 133 -50 19 3 45 16 160
81 52 29 120 66 150 83 70 38 83 51 76 73 -6 19 -11 23 -130 88 -37 21 -97 55
-132 77 -36 21 -66 39 -69 39 -2 0 -44 24 -93 53 -49 30 -96 56 -105 60 -8 3
-34 17 -57 32 l-41 26 3 126 3 127 40 27 c22 15 72 44 111 65 l71 37 77 -44
c42 -24 91 -53 109 -64 l32 -21 3 -101 c2 -69 7 -105 16 -112 14 -12 64 12
188 87 35 21 90 53 123 72 105 57 105 57 105 185 0 103 -2 113 -22 132 -13 12
-99 65 -193 118 -93 54 -187 109 -207 121 -21 13 -40 24 -43 24 -2 0 -35 19
-72 41 -90 55 -114 62 -155 40z"/>
</g>
</svg>
