<?xml version="1.0" standalone="no"?>
<!DOCTYPE svg PUBLIC "-//W3C//DTD SVG 20010904//EN"
 "http://www.w3.org/TR/2001/REC-SVG-20010904/DTD/svg10.dtd">
<svg version="1.0" xmlns="http://www.w3.org/2000/svg"
 width="840.000000pt" height="880.000000pt" viewBox="0 0 840.000000 880.000000"
 preserveAspectRatio="xMidYMid meet">

<g transform="translate(0.000000,880.000000) scale(0.100000,-0.100000)"
fill="#000000" stroke="none">
<path d="M4000 8394 c-301 -13 -595 -48 -815 -97 -461 -105 -778 -319 -879
-595 -20 -55 -21 -78 -24 -574 l-3 -518 973 -2 973 -3 0 -140 0 -140 -1465 -6
c-1574 -5 -1478 -2 -1642 -53 -80 -25 -230 -103 -299 -155 -87 -66 -222 -209
-281 -298 -221 -329 -330 -793 -330 -1398 -1 -514 68 -929 207 -1250 84 -195
163 -315 289 -441 143 -142 272 -217 457 -264 71 -18 111 -20 463 -20 l386 0
0 473 c0 516 8 648 45 799 109 439 381 706 810 795 70 14 219 17 1230 23
l1150 6 101 26 c490 129 750 416 794 877 14 145 13 1978 0 2057 -59 333 -337
596 -787 743 -217 72 -431 112 -713 136 -178 15 -503 24 -640 19z m-773 -624
c112 -39 198 -131 228 -245 30 -111 10 -211 -63 -307 -37 -50 -61 -70 -116
-98 -64 -32 -76 -35 -160 -35 -83 0 -97 3 -158 33 -73 36 -124 87 -166 167
-23 44 -26 62 -26 145 -1 105 16 157 73 229 88 111 253 159 388 111z"/>
</g>
</svg>
