<?xml version="1.0" encoding="UTF-8"?>
<!DOCTYPE svg PUBLIC "-//W3C//DTD SVG 1.1//EN" "http://www.w3.org/Graphics/SVG/1.1/DTD/svg11.dtd">
<svg xmlns="http://www.w3.org/2000/svg" version="1.1" width="360px" height="270px" style="shape-rendering:geometricPrecision; text-rendering:geometricPrecision; image-rendering:optimizeQuality; fill-rule:evenodd; clip-rule:evenodd" xmlns:xlink="http://www.w3.org/1999/xlink">
<g><path style="opacity:1" fill="#fefffe" d="M -0.5,-0.5 C 4.5,-0.5 9.5,-0.5 14.5,-0.5C 14.5,4.5 14.5,9.5 14.5,14.5C 9.5,14.5 4.5,14.5 -0.5,14.5C -0.5,9.5 -0.5,4.5 -0.5,-0.5 Z"/></g>
<g><path style="opacity:1" fill="#4dba87" d="M 23.5,-0.5 C 44.5,-0.5 65.5,-0.5 86.5,-0.5C 116.734,53.6375 147.734,107.304 179.5,160.5C 210.955,107.057 241.955,53.3908 272.5,-0.5C 293.5,-0.5 314.5,-0.5 335.5,-0.5C 309.505,44.4971 283.505,89.4971 257.5,134.5C 251.315,144.203 245.648,154.203 240.5,164.5C 220.165,199.168 199.832,233.834 179.5,268.5C 147.799,214.928 116.632,160.928 86,106.5C 85.2917,105.619 84.4584,104.953 83.5,104.5C 75.3222,88.8025 66.6556,73.4691 57.5,58.5C 46.4194,38.67 35.086,19.0033 23.5,-0.5 Z"/></g>
<g><path style="opacity:1" fill="#425465" d="M 86.5,-0.5 C 105.5,-0.5 124.5,-0.5 143.5,-0.5C 146.679,5.86966 150.346,11.8697 154.5,17.5C 162.303,32.4369 170.637,47.1036 179.5,61.5C 183.031,56.4358 186.031,51.1025 188.5,45.5C 197.989,30.531 206.989,15.1977 215.5,-0.5C 234.5,-0.5 253.5,-0.5 272.5,-0.5C 241.955,53.3908 210.955,107.057 179.5,160.5C 147.734,107.304 116.734,53.6375 86.5,-0.5 Z"/></g>
<g><path style="opacity:1" fill="#f6f7f6" d="M 143.5,-0.5 C 167.5,-0.5 191.5,-0.5 215.5,-0.5C 206.989,15.1977 197.989,30.531 188.5,45.5C 185.609,44.5975 182.609,44.2641 179.5,44.5C 179.5,39.5 179.5,34.5 179.5,29.5C 174.5,29.5 169.5,29.5 164.5,29.5C 164.5,24.5 164.5,19.5 164.5,14.5C 161.167,14.5 157.833,14.5 154.5,14.5C 154.5,15.5 154.5,16.5 154.5,17.5C 150.346,11.8697 146.679,5.86966 143.5,-0.5 Z"/></g>
<g><path style="opacity:1" fill="#edeeed" d="M -0.5,14.5 C 4.5,14.5 9.5,14.5 14.5,14.5C 14.5,19.5 14.5,24.5 14.5,29.5C 9.5,29.5 4.5,29.5 -0.5,29.5C -0.5,24.5 -0.5,19.5 -0.5,14.5 Z"/></g>
<g><path style="opacity:1" fill="#fefffe" d="M 14.5,14.5 C 19.5,14.5 24.5,14.5 29.5,14.5C 29.5,19.5 29.5,24.5 29.5,29.5C 24.5,29.5 19.5,29.5 14.5,29.5C 14.5,24.5 14.5,19.5 14.5,14.5 Z"/></g>
<g><path style="opacity:1" fill="#fefffe" d="M -0.5,29.5 C 4.5,29.5 9.5,29.5 14.5,29.5C 14.5,34.5 14.5,39.5 14.5,44.5C 9.5,44.5 4.5,44.5 -0.5,44.5C -0.5,39.5 -0.5,34.5 -0.5,29.5 Z"/></g>
<g><path style="opacity:1" fill="#edeeed" d="M 14.5,29.5 C 19.5,29.5 24.5,29.5 29.5,29.5C 29.5,34.5 29.5,39.5 29.5,44.5C 24.5,44.5 19.5,44.5 14.5,44.5C 14.5,39.5 14.5,34.5 14.5,29.5 Z"/></g>
<g><path style="opacity:1" fill="#ebeeec" d="M 188.5,45.5 C 186.031,51.1025 183.031,56.4358 179.5,61.5C 170.637,47.1036 162.303,32.4369 154.5,17.5C 154.5,16.5 154.5,15.5 154.5,14.5C 157.833,14.5 161.167,14.5 164.5,14.5C 164.5,19.5 164.5,24.5 164.5,29.5C 169.5,29.5 174.5,29.5 179.5,29.5C 179.5,34.5 179.5,39.5 179.5,44.5C 182.609,44.2641 185.609,44.5975 188.5,45.5 Z"/></g>
<g><path style="opacity:1" fill="#f6f6f6" d="M 14.5,-0.5 C 17.5,-0.5 20.5,-0.5 23.5,-0.5C 35.086,19.0033 46.4194,38.67 57.5,58.5C 53.3656,59.4849 49.0323,59.8182 44.5,59.5C 44.5,64.5 44.5,69.5 44.5,74.5C 49.5,74.5 54.5,74.5 59.5,74.5C 59.5,79.5 59.5,84.5 59.5,89.5C 64.5,89.5 69.5,89.5 74.5,89.5C 74.5,94.5 74.5,99.5 74.5,104.5C 77.5,104.5 80.5,104.5 83.5,104.5C 84.4584,104.953 85.2917,105.619 86,106.5C 116.632,160.928 147.799,214.928 179.5,268.5C 199.832,233.834 220.165,199.168 240.5,164.5C 244.857,164.599 249.524,164.599 254.5,164.5C 254.5,169.5 254.5,174.5 254.5,179.5C 259.5,179.5 264.5,179.5 269.5,179.5C 269.5,184.5 269.5,189.5 269.5,194.5C 274.5,194.5 279.5,194.5 284.5,194.5C 284.5,199.5 284.5,204.5 284.5,209.5C 289.5,209.5 294.5,209.5 299.5,209.5C 299.5,214.5 299.5,219.5 299.5,224.5C 304.5,224.5 309.5,224.5 314.5,224.5C 314.5,229.5 314.5,234.5 314.5,239.5C 319.5,239.5 324.5,239.5 329.5,239.5C 329.5,244.5 329.5,249.5 329.5,254.5C 334.5,254.5 339.5,254.5 344.5,254.5C 344.5,259.5 344.5,264.5 344.5,269.5C 239.5,269.5 134.5,269.5 29.5,269.5C 29.5,264.5 29.5,259.5 29.5,254.5C 29.5,249.5 29.5,244.5 29.5,239.5C 29.5,234.5 29.5,229.5 29.5,224.5C 29.5,219.5 29.5,214.5 29.5,209.5C 29.5,204.5 29.5,199.5 29.5,194.5C 29.5,189.5 29.5,184.5 29.5,179.5C 29.5,174.5 29.5,169.5 29.5,164.5C 29.5,159.5 29.5,154.5 29.5,149.5C 29.5,144.5 29.5,139.5 29.5,134.5C 29.5,129.5 29.5,124.5 29.5,119.5C 29.5,114.5 29.5,109.5 29.5,104.5C 29.5,99.5 29.5,94.5 29.5,89.5C 29.5,84.5 29.5,79.5 29.5,74.5C 29.5,69.5 29.5,64.5 29.5,59.5C 29.5,54.5 29.5,49.5 29.5,44.5C 29.5,39.5 29.5,34.5 29.5,29.5C 29.5,24.5 29.5,19.5 29.5,14.5C 24.5,14.5 19.5,14.5 14.5,14.5C 14.5,9.5 14.5,4.5 14.5,-0.5 Z"/></g>
<g><path style="opacity:1" fill="#edeeed" d="M -0.5,44.5 C 4.5,44.5 9.5,44.5 14.5,44.5C 14.5,49.5 14.5,54.5 14.5,59.5C 9.5,59.5 4.5,59.5 -0.5,59.5C -0.5,54.5 -0.5,49.5 -0.5,44.5 Z"/></g>
<g><path style="opacity:1" fill="#fefffe" d="M 14.5,44.5 C 19.5,44.5 24.5,44.5 29.5,44.5C 29.5,49.5 29.5,54.5 29.5,59.5C 24.5,59.5 19.5,59.5 14.5,59.5C 14.5,54.5 14.5,49.5 14.5,44.5 Z"/></g>
<g><path style="opacity:1" fill="#fefffe" d="M -0.5,59.5 C 4.5,59.5 9.5,59.5 14.5,59.5C 14.5,64.5 14.5,69.5 14.5,74.5C 9.5,74.5 4.5,74.5 -0.5,74.5C -0.5,69.5 -0.5,64.5 -0.5,59.5 Z"/></g>
<g><path style="opacity:1" fill="#edeeed" d="M 14.5,59.5 C 19.5,59.5 24.5,59.5 29.5,59.5C 29.5,64.5 29.5,69.5 29.5,74.5C 24.5,74.5 19.5,74.5 14.5,74.5C 14.5,69.5 14.5,64.5 14.5,59.5 Z"/></g>
<g><path style="opacity:1" fill="#edeeed" d="M -0.5,74.5 C 4.5,74.5 9.5,74.5 14.5,74.5C 14.5,79.5 14.5,84.5 14.5,89.5C 9.5,89.5 4.5,89.5 -0.5,89.5C -0.5,84.5 -0.5,79.5 -0.5,74.5 Z"/></g>
<g><path style="opacity:1" fill="#fefffe" d="M 14.5,74.5 C 19.5,74.5 24.5,74.5 29.5,74.5C 29.5,79.5 29.5,84.5 29.5,89.5C 24.5,89.5 19.5,89.5 14.5,89.5C 14.5,84.5 14.5,79.5 14.5,74.5 Z"/></g>
<g><path style="opacity:1" fill="#eceeed" d="M 57.5,58.5 C 66.6556,73.4691 75.3222,88.8025 83.5,104.5C 80.5,104.5 77.5,104.5 74.5,104.5C 74.5,99.5 74.5,94.5 74.5,89.5C 69.5,89.5 64.5,89.5 59.5,89.5C 59.5,84.5 59.5,79.5 59.5,74.5C 54.5,74.5 49.5,74.5 44.5,74.5C 44.5,69.5 44.5,64.5 44.5,59.5C 49.0323,59.8182 53.3656,59.4849 57.5,58.5 Z"/></g>
<g><path style="opacity:1" fill="#f5f5f5" d="M 335.5,-0.5 C 343.5,-0.5 351.5,-0.5 359.5,-0.5C 359.5,64.5 359.5,129.5 359.5,194.5C 354.5,194.5 349.5,194.5 344.5,194.5C 344.5,189.5 344.5,184.5 344.5,179.5C 339.5,179.5 334.5,179.5 329.5,179.5C 329.5,174.5 329.5,169.5 329.5,164.5C 324.5,164.5 319.5,164.5 314.5,164.5C 314.5,159.5 314.5,154.5 314.5,149.5C 309.5,149.5 304.5,149.5 299.5,149.5C 299.5,144.5 299.5,139.5 299.5,134.5C 294.5,134.5 289.5,134.5 284.5,134.5C 284.5,129.5 284.5,124.5 284.5,119.5C 279.5,119.5 274.5,119.5 269.5,119.5C 269.5,124.5 269.5,129.5 269.5,134.5C 265.289,134.324 261.289,134.324 257.5,134.5C 283.505,89.4971 309.505,44.4971 335.5,-0.5 Z"/></g>
<g><path style="opacity:1" fill="#fefffe" d="M 314.5,44.5 C 319.5,44.5 324.5,44.5 329.5,44.5C 329.5,49.5 329.5,54.5 329.5,59.5C 324.5,59.5 319.5,59.5 314.5,59.5C 314.5,54.5 314.5,49.5 314.5,44.5 Z"/></g>
<g><path style="opacity:1" fill="#fefffe" d="M -0.5,89.5 C 4.5,89.5 9.5,89.5 14.5,89.5C 14.5,94.5 14.5,99.5 14.5,104.5C 9.5,104.5 4.5,104.5 -0.5,104.5C -0.5,99.5 -0.5,94.5 -0.5,89.5 Z"/></g>
<g><path style="opacity:1" fill="#edeeed" d="M 14.5,89.5 C 19.5,89.5 24.5,89.5 29.5,89.5C 29.5,94.5 29.5,99.5 29.5,104.5C 24.5,104.5 19.5,104.5 14.5,104.5C 14.5,99.5 14.5,94.5 14.5,89.5 Z"/></g>
<g><path style="opacity:1" fill="#edeeed" d="M -0.5,104.5 C 4.5,104.5 9.5,104.5 14.5,104.5C 14.5,109.5 14.5,114.5 14.5,119.5C 9.5,119.5 4.5,119.5 -0.5,119.5C -0.5,114.5 -0.5,109.5 -0.5,104.5 Z"/></g>
<g><path style="opacity:1" fill="#fefffe" d="M 14.5,104.5 C 19.5,104.5 24.5,104.5 29.5,104.5C 29.5,109.5 29.5,114.5 29.5,119.5C 24.5,119.5 19.5,119.5 14.5,119.5C 14.5,114.5 14.5,109.5 14.5,104.5 Z"/></g>
<g><path style="opacity:1" fill="#fefffe" d="M -0.5,119.5 C 4.5,119.5 9.5,119.5 14.5,119.5C 14.5,124.5 14.5,129.5 14.5,134.5C 9.5,134.5 4.5,134.5 -0.5,134.5C -0.5,129.5 -0.5,124.5 -0.5,119.5 Z"/></g>
<g><path style="opacity:1" fill="#edeeed" d="M 14.5,119.5 C 19.5,119.5 24.5,119.5 29.5,119.5C 29.5,124.5 29.5,129.5 29.5,134.5C 24.5,134.5 19.5,134.5 14.5,134.5C 14.5,129.5 14.5,124.5 14.5,119.5 Z"/></g>
<g><path style="opacity:1" fill="#fefffe" d="M 284.5,134.5 C 279.5,134.5 274.5,134.5 269.5,134.5C 269.5,129.5 269.5,124.5 269.5,119.5C 274.5,119.5 279.5,119.5 284.5,119.5C 284.5,124.5 284.5,129.5 284.5,134.5 Z"/></g>
<g><path style="opacity:1" fill="#edeeed" d="M -0.5,134.5 C 4.5,134.5 9.5,134.5 14.5,134.5C 14.5,139.5 14.5,144.5 14.5,149.5C 9.5,149.5 4.5,149.5 -0.5,149.5C -0.5,144.5 -0.5,139.5 -0.5,134.5 Z"/></g>
<g><path style="opacity:1" fill="#fefffe" d="M 14.5,134.5 C 19.5,134.5 24.5,134.5 29.5,134.5C 29.5,139.5 29.5,144.5 29.5,149.5C 24.5,149.5 19.5,149.5 14.5,149.5C 14.5,144.5 14.5,139.5 14.5,134.5 Z"/></g>
<g><path style="opacity:1" fill="#fefffe" d="M -0.5,149.5 C 4.5,149.5 9.5,149.5 14.5,149.5C 14.5,154.5 14.5,159.5 14.5,164.5C 9.5,164.5 4.5,164.5 -0.5,164.5C -0.5,159.5 -0.5,154.5 -0.5,149.5 Z"/></g>
<g><path style="opacity:1" fill="#edeeed" d="M 14.5,149.5 C 19.5,149.5 24.5,149.5 29.5,149.5C 29.5,154.5 29.5,159.5 29.5,164.5C 24.5,164.5 19.5,164.5 14.5,164.5C 14.5,159.5 14.5,154.5 14.5,149.5 Z"/></g>
<g><path style="opacity:1" fill="#f8f8f8" d="M 269.5,134.5 C 274.5,134.5 279.5,134.5 284.5,134.5C 289.5,134.5 294.5,134.5 299.5,134.5C 299.5,139.5 299.5,144.5 299.5,149.5C 304.5,149.5 309.5,149.5 314.5,149.5C 314.5,154.5 314.5,159.5 314.5,164.5C 319.5,164.5 324.5,164.5 329.5,164.5C 329.5,169.5 329.5,174.5 329.5,179.5C 334.5,179.5 339.5,179.5 344.5,179.5C 344.5,184.5 344.5,189.5 344.5,194.5C 349.5,194.5 354.5,194.5 359.5,194.5C 359.5,219.5 359.5,244.5 359.5,269.5C 354.5,269.5 349.5,269.5 344.5,269.5C 344.5,264.5 344.5,259.5 344.5,254.5C 339.5,254.5 334.5,254.5 329.5,254.5C 329.5,249.5 329.5,244.5 329.5,239.5C 324.5,239.5 319.5,239.5 314.5,239.5C 314.5,234.5 314.5,229.5 314.5,224.5C 309.5,224.5 304.5,224.5 299.5,224.5C 299.5,219.5 299.5,214.5 299.5,209.5C 294.5,209.5 289.5,209.5 284.5,209.5C 284.5,204.5 284.5,199.5 284.5,194.5C 279.5,194.5 274.5,194.5 269.5,194.5C 269.5,189.5 269.5,184.5 269.5,179.5C 264.5,179.5 259.5,179.5 254.5,179.5C 254.5,174.5 254.5,169.5 254.5,164.5C 249.524,164.599 244.857,164.599 240.5,164.5C 245.648,154.203 251.315,144.203 257.5,134.5C 261.289,134.324 265.289,134.324 269.5,134.5 Z"/></g>
<g><path style="opacity:1" fill="#edeeed" d="M -0.5,164.5 C 4.5,164.5 9.5,164.5 14.5,164.5C 14.5,169.5 14.5,174.5 14.5,179.5C 9.5,179.5 4.5,179.5 -0.5,179.5C -0.5,174.5 -0.5,169.5 -0.5,164.5 Z"/></g>
<g><path style="opacity:1" fill="#fefffe" d="M 14.5,164.5 C 19.5,164.5 24.5,164.5 29.5,164.5C 29.5,169.5 29.5,174.5 29.5,179.5C 24.5,179.5 19.5,179.5 14.5,179.5C 14.5,174.5 14.5,169.5 14.5,164.5 Z"/></g>
<g><path style="opacity:1" fill="#fefffe" d="M -0.5,179.5 C 4.5,179.5 9.5,179.5 14.5,179.5C 14.5,184.5 14.5,189.5 14.5,194.5C 9.5,194.5 4.5,194.5 -0.5,194.5C -0.5,189.5 -0.5,184.5 -0.5,179.5 Z"/></g>
<g><path style="opacity:1" fill="#edeeed" d="M 14.5,179.5 C 19.5,179.5 24.5,179.5 29.5,179.5C 29.5,184.5 29.5,189.5 29.5,194.5C 24.5,194.5 19.5,194.5 14.5,194.5C 14.5,189.5 14.5,184.5 14.5,179.5 Z"/></g>
<g><path style="opacity:1" fill="#edeeed" d="M -0.5,194.5 C 4.5,194.5 9.5,194.5 14.5,194.5C 14.5,199.5 14.5,204.5 14.5,209.5C 9.5,209.5 4.5,209.5 -0.5,209.5C -0.5,204.5 -0.5,199.5 -0.5,194.5 Z"/></g>
<g><path style="opacity:1" fill="#fefffe" d="M 14.5,194.5 C 19.5,194.5 24.5,194.5 29.5,194.5C 29.5,199.5 29.5,204.5 29.5,209.5C 24.5,209.5 19.5,209.5 14.5,209.5C 14.5,204.5 14.5,199.5 14.5,194.5 Z"/></g>
<g><path style="opacity:1" fill="#fefffe" d="M -0.5,209.5 C 4.5,209.5 9.5,209.5 14.5,209.5C 14.5,214.5 14.5,219.5 14.5,224.5C 9.5,224.5 4.5,224.5 -0.5,224.5C -0.5,219.5 -0.5,214.5 -0.5,209.5 Z"/></g>
<g><path style="opacity:1" fill="#edeeed" d="M 14.5,209.5 C 19.5,209.5 24.5,209.5 29.5,209.5C 29.5,214.5 29.5,219.5 29.5,224.5C 24.5,224.5 19.5,224.5 14.5,224.5C 14.5,219.5 14.5,214.5 14.5,209.5 Z"/></g>
<g><path style="opacity:1" fill="#edeeed" d="M -0.5,224.5 C 4.5,224.5 9.5,224.5 14.5,224.5C 14.5,229.5 14.5,234.5 14.5,239.5C 9.5,239.5 4.5,239.5 -0.5,239.5C -0.5,234.5 -0.5,229.5 -0.5,224.5 Z"/></g>
<g><path style="opacity:1" fill="#fefffe" d="M 14.5,224.5 C 19.5,224.5 24.5,224.5 29.5,224.5C 29.5,229.5 29.5,234.5 29.5,239.5C 24.5,239.5 19.5,239.5 14.5,239.5C 14.5,234.5 14.5,229.5 14.5,224.5 Z"/></g>
<g><path style="opacity:1" fill="#fefffe" d="M -0.5,239.5 C 4.5,239.5 9.5,239.5 14.5,239.5C 14.5,244.5 14.5,249.5 14.5,254.5C 9.5,254.5 4.5,254.5 -0.5,254.5C -0.5,249.5 -0.5,244.5 -0.5,239.5 Z"/></g>
<g><path style="opacity:1" fill="#edeeed" d="M 14.5,239.5 C 19.5,239.5 24.5,239.5 29.5,239.5C 29.5,244.5 29.5,249.5 29.5,254.5C 24.5,254.5 19.5,254.5 14.5,254.5C 14.5,249.5 14.5,244.5 14.5,239.5 Z"/></g>
<g><path style="opacity:1" fill="#edeeed" d="M -0.5,254.5 C 4.5,254.5 9.5,254.5 14.5,254.5C 14.5,259.5 14.5,264.5 14.5,269.5C 9.5,269.5 4.5,269.5 -0.5,269.5C -0.5,264.5 -0.5,259.5 -0.5,254.5 Z"/></g>
<g><path style="opacity:1" fill="#fefffe" d="M 14.5,254.5 C 19.5,254.5 24.5,254.5 29.5,254.5C 29.5,259.5 29.5,264.5 29.5,269.5C 24.5,269.5 19.5,269.5 14.5,269.5C 14.5,264.5 14.5,259.5 14.5,254.5 Z"/></g>
</svg>
